<?xml version="1.0" standalone="no"?>
<!DOCTYPE svg PUBLIC "-//W3C//DTD SVG 20010904//EN"
 "http://www.w3.org/TR/2001/REC-SVG-20010904/DTD/svg10.dtd">
<svg version="1.0" xmlns="http://www.w3.org/2000/svg"
 width="700.000000pt" height="700.000000pt" viewBox="0 0 700.000000 700.000000"
 preserveAspectRatio="xMidYMid meet">
<metadata>
Created by potrace 1.11, written by Peter Selinger 2001-2013
</metadata>
<g transform="translate(0.000000,700.000000) scale(0.100000,-0.100000)"
fill="#000000" stroke="none">
<path d="M3889 6784 c-246 -82 -479 -211 -709 -394 -114 -91 -371 -345 -461
-456 -281 -349 -495 -717 -791 -1364 -17 -36 -111 -253 -209 -483 -196 -455
-299 -686 -405 -902 -169 -347 -357 -670 -539 -929 -131 -186 -143 -207 -150
-249 -12 -69 40 -109 132 -102 343 27 914 27 1198 1 22 -2 81 -7 130 -11 50
-4 101 -8 115 -10 24 -4 70 -9 175 -20 88 -9 166 -19 325 -40 14 -2 54 -6 90
-10 36 -3 72 -8 80 -10 8 -3 56 -8 105 -11 50 -3 104 -8 120 -9 241 -25 603
-25 805 0 165 19 223 25 225 23 1 -2 7 -30 13 -63 23 -126 35 -164 69 -222 40
-70 100 -117 178 -138 49 -14 981 -13 1045 0 154 32 217 118 264 355 9 46 25
135 30 160 17 104 112 433 145 505 6 11 31 70 56 130 61 142 260 542 295 590
17 24 89 217 108 290 40 152 50 243 47 405 -4 155 -7 178 -41 319 -64 262
-198 496 -395 691 -220 217 -486 350 -814 406 -59 10 -331 12 -390 3 -33 -5
-71 -11 -85 -13 -146 -23 -341 -97 -483 -182 -233 -140 -441 -364 -556 -599
-48 -98 -103 -242 -115 -301 -53 -263 -55 -474 -6 -679 28 -118 76 -243 142
-372 147 -286 248 -492 278 -564 79 -189 164 -445 151 -453 -39 -24 -617 -25
-806 -1 -16 2 -57 7 -90 10 -33 4 -62 8 -65 10 -3 1 -32 6 -65 9 -33 4 -85 11
-115 16 -30 5 -77 12 -105 15 -27 3 -63 8 -80 10 -100 15 -328 45 -374 50 -30
4 -61 8 -70 10 -9 2 -46 6 -82 9 -36 4 -76 8 -90 11 -262 42 -725 49 -936 15
-78 -13 -77 -13 -56 14 212 279 239 319 362 534 66 117 221 423 221 437 0 2
11 28 24 57 43 96 94 220 181 443 48 121 93 234 100 250 8 17 62 145 121 285
58 140 117 278 129 305 34 76 59 132 95 215 134 311 409 785 579 1000 237 298
450 501 686 652 69 45 91 55 317 162 94 44 120 60 128 82 17 44 -13 108 -66
137 -5 3 -57 -10 -115 -29z m1153 -1668 c211 -17 438 -98 616 -220 102 -69
122 -86 212 -177 180 -182 302 -413 357 -674 18 -82 25 -351 12 -445 -21 -152
-90 -343 -184 -514 -93 -166 -229 -452 -288 -601 -82 -205 -158 -472 -182
-635 -20 -136 -51 -242 -85 -289 -39 -56 -42 -56 -580 -56 -272 0 -507 3 -523
8 -58 16 -109 105 -132 232 -19 101 -24 90 41 104 192 43 440 145 619 254 138
85 325 254 325 294 0 30 -37 81 -71 98 -32 17 -52 8 -154 -69 -138 -104 -259
-171 -415 -229 -100 -38 -215 -73 -265 -81 -16 -3 -57 -10 -89 -15 -33 -6 -60
-10 -61 -8 -1 1 -10 31 -19 67 -28 103 -89 275 -141 400 -44 105 -218 457
-292 590 -48 86 -100 226 -129 346 -23 92 -27 133 -28 264 -1 175 5 236 34
351 142 555 621 963 1181 1005 46 4 85 7 86 8 3 2 74 -2 155 -8z"/>
<path d="M4390 1293 c-29 -12 -39 -38 -40 -100 0 -51 4 -66 22 -83 21 -20 32
-20 548 -20 l526 0 18 22 c13 15 19 37 19 75 0 63 -16 99 -47 107 -28 8 -1027
6 -1046 -1z"/>
<path d="M4413 992 c-46 -5 -63 -34 -63 -108 0 -108 -40 -101 569 -100 520 1
520 1 542 23 17 17 22 33 22 76 -1 64 -15 95 -47 103 -25 6 -965 12 -1023 6z"/>
<path d="M4374 668 c-21 -17 -24 -28 -24 -83 0 -46 5 -69 18 -85 l19 -23 509
1 c280 0 519 1 531 1 32 1 54 41 55 99 0 62 -8 88 -30 98 -9 4 -250 9 -535 9
-496 2 -519 1 -543 -17z"/>
<path d="M4590 383 c0 -15 67 -92 106 -122 62 -47 135 -72 213 -72 80 -1 97 3
166 35 55 25 165 127 165 153 0 10 -62 13 -325 13 -179 0 -325 -3 -325 -7z"/>
</g>
</svg>
