<?xml version="1.0" encoding="UTF-8"?>
<svg width="47.015mm" height="22.223mm" version="1.1" viewBox="0 0 166.59 78.744" xmlns="http://www.w3.org/2000/svg">
    <style>
    g {
        fill: black;
        stroke: black;
    }
    @media (prefers-color-scheme: dark) {
        html[data-color-mode="auto"] g {
            fill: white;
            stroke: white;
        }
    }
    html[data-color-mode="dark"] g {
            fill: white;
            stroke: white;
    }
    </style>
 <g transform="translate(-178.37 -192.36)">
  <g stroke-width="1px">
   <path d="m233.36 244.81c0 0.1956-0.0978 0.3912-0.2934 0.5868-1.2714 1.3692-2.7139 2.4939-4.3276 3.3741-1.5648 0.88019-3.2274 1.5892-4.9878 2.1271-1.7115 0.53789-3.4963 0.90464-5.3545 1.1002-1.8582 0.2445-3.6675 0.36675-5.4279 0.36675-1.5648 0-3.1296-0.0734-4.6944-0.22005-1.5648-0.0978-3.1296-0.2445-4.6944-0.4401-2.7873-0.39119-5.5746-0.70904-8.3619-0.95354-2.7384-0.2445-5.5257-0.36675-8.3619-0.36675-1.1247 0-2.2494 0.0245-3.3741 0.0734s-2.2494 0.12228-3.3741 0.22005c-2.014 0.15317-2.0551-1.0225-1.247-2.2738 1.5159-2.0049 2.9095-4.1076 4.1809-6.3081 1.3203-2.2005 2.5183-4.4254 3.5941-6.6748 1.1247-2.2983 2.176-4.5966 3.154-6.8949 1.0269-2.3472 2.0293-4.6944 3.0073-7.0416 1.3203-3.0318 2.7384-6.0391 4.2543-9.022 1.5648-3.0318 3.3496-5.868 5.3545-8.5086s4.3032-4.9633 6.8949-6.9682c2.5917-2.0538 5.5746-3.5941 8.9487-4.621h0.1467c0.24449 0 0.46454 0.1467 0.66014 0.4401 0.2445 0.2934 0.36675 0.56235 0.36675 0.80685 0 0.39119-0.17115 0.68459-0.51345 0.88019-0.97799 0.489-1.8826 0.90465-2.7139 1.2469-0.8313 0.3423-1.736 0.85575-2.7139 1.5404-2.1516 1.467-4.0831 3.2029-5.7946 5.2078-1.7115 1.956-3.2518 4.0587-4.621 6.3081s-2.6161 4.5966-3.7408 7.0416c-1.0758 2.3961-2.1027 4.7677-3.0807 7.1149-0.8802 2.0538-1.736 4.132-2.5672 6.2347-0.78239 2.1027-1.6381 4.1809-2.5672 6.2347-0.92909 2.0538-1.9804 4.0587-3.154 6.0147-1.1247 1.9071-2.4205 3.7164-3.8875 5.4279 1.8093-0.2934 3.6675-0.4401 5.5746-0.4401 2.1027 0 4.2054 0.1467 6.3081 0.4401 2.1516 0.2445 4.2787 0.51345 6.3814 0.80684l6.3081 0.8802c2.1027 0.2445 4.2298 0.36675 6.3814 0.36675 2.445 0 4.8411-0.22005 7.1883-0.66015 2.3472-0.44009 4.5966-1.2958 6.7482-2.5672 0.489-0.29339 0.9291-0.58679 1.3203-0.88019 0.44009-0.3423 0.90464-0.6846 1.3936-1.0269 0.1467-0.14669 0.31785-0.22004 0.51345-0.22004 0.24449 0 0.48899 0.1467 0.73349 0.44009 0.2934 0.2934 0.4401 0.56235 0.4401 0.80685z" stroke="none"/>
   <path d="m256.51 194.4c2.228-1.3585 3.9397-2.0378 5.1352-2.0378s2.3367 0.24454 3.4235 0.73361c-4.0309 13.524-6.4245 29.893-7.9882 41.816-0.97815 7.3904-1.6846 13.178-2.1193 17.362-3.9669 0.38039-6.5481-0.4619-7.7436-2.5269 5.2411-18.684 7.9487-36.267 9.2924-55.347z" stroke="none"/>
   <path d="m281.89 192.36c7.9882 0 14.265 2.4454 18.829 7.3361s6.9285 11.194 7.0915 18.911c0.10869 6.3579-1.3585 12.172-4.4016 17.444-7.7025 12.536-20.852 16.044-33.827 16.221-7.6815 0.032-6.847-5.0537-6.847-5.0537 4.1299-13.694 5.0915-25.568 6.8848-35.621l2.163-13.286-2.9344 0.65209c-1.1412-0.76077-1.8204-1.6846-2.0378-2.7714-0.16302-1.0868 0.0543-1.9563 0.6521-2.6084 3.8582-0.81512 8.6674-1.2227 14.428-1.2227zm-11.004 54.124c9.8115-0.45533 22.307-4.3026 27.225-12.96 2.1193-4.0756 3.1246-8.7489 3.0159-14.02-0.16303-6.684-2.1465-12.064-5.9504-16.139-3.7496-4.1299-8.9391-5.9232-15.569-5.3798-4.2934 15.937-6.4824 32.192-8.7218 48.5z" stroke="none"/>
   <path d="m317.75 220.57c11.086-0.92381 16.954-1.44 17.607-1.5487 0.48907 0.70643 0.6521 1.7118 0.48907 3.0159-0.16302 1.3042-0.62492 2.554-1.3857 3.7496-7.8251-0.54341-13.64-0.73361-17.444-0.57059l-5.7058 21.601c6.7927-0.86946 14.346-2.1193 22.66-3.7496 1.1412 0.54341 1.6846 1.4944 1.6302 2.8529-0.0543 1.3585-0.48907 2.6899-1.3042 3.9941l-23.72 2.3638c-6.1502-0.13102-6.2221-2.9344-6.2764-5.3798 4.619-12.118 7.9066-23.693 9.8629-34.724l1.5487-13.123c-0.76077-0.48907-2.0106-0.78795-3.7495-0.89664-0.97815-1.7933-0.97815-3.179 0-4.1571 8.8033-0.86946 19.427-1.2227 31.871-1.0597 1.0868 0.81512 1.3857 2.2552 0.89663 4.3201-1.5779 3.8949-4.4709 2.4892-8.0697 1.5487-4.8907-0.76078-9.6184-0.89663-14.183-0.40756l-2.3638 8.8848z" stroke="none"/>
  </g>
  <g transform="matrix(.59406 0 0 .59406 212.76 211.95)">
   <path d="m38.024 81.513c0.712 0 1.289-0.637 1.289-1.42v-1.345c0-0.783-0.577-1.42-1.289-1.42h-20.073c-0.713 0-1.291 0.637-1.291 1.42v1.345c0 0.783 0.578 1.42 1.291 1.42h20.073z" stroke="none"/>
   <path d="m38.024 87.632c0.712 0 1.289-0.637 1.289-1.422v-1.344c0-0.784-0.577-1.421-1.289-1.421h-20.073c-0.713 0-1.291 0.637-1.291 1.421v1.344c0 0.785 0.578 1.422 1.291 1.422h20.073z" stroke="none"/>
   <path d="m38.024 93.75c0.712 0 1.289-0.637 1.289-1.421v-1.344c0-0.785-0.577-1.422-1.289-1.422h-20.073c-0.713 0-1.291 0.637-1.291 1.422v1.344c0 0.784 0.578 1.421 1.291 1.421h20.073z" stroke="none"/>
   <path d="m34.601 95.465c-1.212 2.416-3.712 4.11-6.598 4.11-2.869 0-5.41-1.719-6.632-4.109h13.23z" stroke="none"/>
   <path d="m27.986-0.42511c-15.455 0-27.986 12.53-27.986 27.986 0 5.089 1.429 9.82 3.731 13.973 6.873 12.382 8.694 19.335 9.815 26.065 0.941 5.64 2.243 6.95 6.504 6.95h7.936 7.936c4.262 0 5.564-1.311 6.505-6.95 1.121-6.729 2.942-13.683 9.815-26.065 2.302-4.153 3.73-8.884 3.73-13.973 0-15.456-12.53-27.986-27.986-27.986z" fill="none" stroke-linecap="round" stroke-linejoin="round" stroke-width="2.525"/>
  </g>
 </g>
</svg>
